<svg width="100" height="100" viewBox="0 0 100 100" fill="none" xmlns="http://www.w3.org/2000/svg">
<path d="M6.25 36.25C6.25 25.749 6.25 20.4985 8.29363 16.4877C10.0913 12.9596 12.9596 10.0913 16.4877 8.29363C20.4985 6.25 25.749 6.25 36.25 6.25H63.75C74.251 6.25 79.5015 6.25 83.5123 8.29363C87.0404 10.0913 89.9087 12.9596 91.7064 16.4877C93.75 20.4985 93.75 25.749 93.75 36.25V63.75C93.75 74.251 93.75 79.5015 91.7064 83.5123C89.9087 87.0404 87.0404 89.9087 83.5123 91.7064C79.5015 93.75 74.251 93.75 63.75 93.75H36.25C25.749 93.75 20.4985 93.75 16.4877 91.7064C12.9596 89.9087 10.0913 87.0404 8.29363 83.5123C6.25 79.5015 6.25 74.251 6.25 63.75V36.25Z" fill="url(#paint0_linear_2803_4283)"/>
<path d="M75.8601 31.3333C71.1296 27.3333 65.453 25.3333 59.461 25L58.5149 26C63.8761 27.3333 68.6067 30 73.0218 33.6667C67.6605 30.6667 61.6686 28.6667 55.3612 28C53.469 27.6667 51.8922 27.6667 50 27.6667C48.1078 27.6667 46.531 27.6667 44.6388 28C38.3314 28.6667 32.3394 30.6667 26.9782 33.6667C31.3933 30 36.1239 27.3333 41.4851 26L40.539 25C34.547 25.3333 28.8704 27.3333 24.1399 31.3333C18.7787 42 15.9404 54 15.625 66.3333C20.3555 71.6667 26.9782 75 33.9163 75C33.9163 75 36.1239 72.3333 37.7007 70C33.6009 69 29.8165 66.6667 27.2936 63C29.5011 64.3333 31.7087 65.6667 33.9163 66.6667C36.7546 68 39.5929 68.6667 42.4312 69.3333C44.9541 69.6667 47.4771 70 50 70C52.5229 70 55.0459 69.6667 57.5688 69.3333C60.4071 68.6667 63.2454 68 66.0837 66.6667C68.2913 65.6667 70.4989 64.3333 72.7064 63C70.1835 66.6667 66.3991 69 62.2993 70C63.8761 72.3333 66.0837 75 66.0837 75C73.0218 75 79.6445 71.6667 84.375 66.3333C84.0596 54 81.2213 42 75.8601 31.3333ZM39.5929 60.3333C36.4392 60.3333 33.6009 57.3333 33.6009 53.6667C33.6009 50 36.4392 47 39.5929 47C42.7466 47 45.5849 50 45.5849 53.6667C45.5849 57.3333 42.7466 60.3333 39.5929 60.3333ZM60.4071 60.3333C57.2534 60.3333 54.4151 57.3333 54.4151 53.6667C54.4151 50 57.2534 47 60.4071 47C63.5608 47 66.3991 50 66.3991 53.6667C66.3991 57.3333 63.5608 60.3333 60.4071 60.3333Z" fill="white"/>
<defs>
<linearGradient id="paint0_linear_2803_4283" x1="50" y1="6.25" x2="50" y2="93.75" gradientUnits="userSpaceOnUse">
<stop stop-color="#687EC9"/>
<stop offset="1" stop-color="#5971C3"/>
</linearGradient>
</defs>
</svg>
