<svg width="100" height="100" viewBox="0 0 100 100" fill="none" xmlns="http://www.w3.org/2000/svg">
<path fill-rule="evenodd" clip-rule="evenodd" d="M50 88.0598C72.4366 88.0598 90.625 70.4456 90.625 48.7174C90.625 26.9892 72.4366 9.375 50 9.375C27.5634 9.375 9.375 26.9892 9.375 48.7174C9.375 60.535 14.7553 71.1356 23.273 78.3473V86.3087C23.273 89.4203 26.4425 91.5073 29.2684 90.2565L38.1031 86.3459C41.8658 87.4603 45.8606 88.0598 50 88.0598Z" fill="url(#paint0_linear_2803_4280)"/>
<path d="M40.2719 40.3541L28.4914 56.4655C27.2283 58.1929 29.4998 60.2681 31.2292 58.9667L41.2884 51.3965C42.3123 50.6259 43.7476 50.6155 44.7834 51.3712L53.7298 57.8975C55.4454 59.1491 57.8975 58.7891 59.1467 57.1023L71.5015 40.419C72.7829 38.6887 70.4938 36.5967 68.7619 37.9151L58.127 46.0113C57.1029 46.7909 55.6599 46.8052 54.6193 46.0461L45.702 39.5409C43.9792 38.2841 41.5157 38.653 40.2719 40.3541Z" fill="white"/>
<defs>
<linearGradient id="paint0_linear_2803_4280" x1="50" y1="9.375" x2="36.9645" y2="90.1823" gradientUnits="userSpaceOnUse">
<stop stop-color="#00B1FF"/>
<stop offset="1" stop-color="#006BFF"/>
</linearGradient>
</defs>
</svg>
