<svg width="24" height="24" viewBox="0 0 24 24" fill="none" xmlns="http://www.w3.org/2000/svg">
<g clip-path="url(#clip0_1610_143)">
<path d="M20.25 6.75H3.75C3.33579 6.75 3 7.08579 3 7.5V18.75C3 19.1642 3.33579 19.5 3.75 19.5H20.25C20.6642 19.5 21 19.1642 21 18.75V7.5C21 7.08579 20.6642 6.75 20.25 6.75Z" stroke="#0A0C00" stroke-width="2" stroke-linecap="round" stroke-linejoin="round"/>
<path d="M8.25 9V6C8.25 5.00544 8.64509 4.05161 9.34835 3.34835C10.0516 2.64509 11.0054 2.25 12 2.25C12.9946 2.25 13.9484 2.64509 14.6517 3.34835C15.3549 4.05161 15.75 5.00544 15.75 6V9" stroke="#0A0C00" stroke-width="2" stroke-linecap="square" stroke-linejoin="round"/>
</g>
<defs>
<clipPath id="clip0_1610_143">
<rect width="24" height="24" fill="white"/>
</clipPath>
</defs>
</svg>
