<svg width="100" height="100" viewBox="0 0 100 100" fill="none" xmlns="http://www.w3.org/2000/svg">
<ellipse cx="32.8125" cy="31.25" rx="26.5625" ry="25" fill="#184AA9"/>
<circle cx="68.75" cy="68.75" r="25" fill="#2173F0"/>
<circle cx="50" cy="50" r="40.625" fill="url(#paint0_linear_2803_4286)"/>
<path d="M50.2149 28.125C56.8192 28.125 65.625 31.25 63.4236 35.4167C60.4146 41.1117 54.6178 35.4167 50.2149 35.4167C45.812 35.4167 43.6106 37.5 43.6106 39.5833C43.6106 41.6667 44.7113 43.75 50.2149 45.8333C55.7185 47.9167 65.625 51.0417 65.625 59.375C65.625 67.7083 57.9199 71.875 48.0134 71.875C39.1391 71.875 32.6033 67.7083 34.8048 63.5417C37.3364 58.75 43.6106 64.5833 48.0134 64.5833C52.4163 64.5833 56.8192 63.5417 56.8192 59.375C56.8192 55.2083 50.2148 54.1667 45.8119 52.0833C40.3082 49.4791 34.8047 46.875 34.8047 39.5833C34.8047 32.2917 43.6106 28.125 50.2149 28.125Z" fill="white"/>
<defs>
<linearGradient id="paint0_linear_2803_4286" x1="18.4028" y1="25.1736" x2="79.3403" y2="75.9549" gradientUnits="userSpaceOnUse">
<stop stop-color="#297AC0"/>
<stop offset="1" stop-color="#48B0F9"/>
</linearGradient>
</defs>
</svg>
