<svg width="100" height="100" viewBox="0 0 100 100" fill="none" xmlns="http://www.w3.org/2000/svg">
<path d="M82.8132 46.8737C87.1275 46.8737 90.625 43.3762 90.625 39.0618C90.625 34.7475 87.1272 31.25 82.8128 31.25C78.4981 31.25 75 34.7478 75 39.0625V46.8737H82.8132ZM60.9375 46.8737C65.2522 46.8737 68.75 43.3759 68.75 39.0612V17.1875C68.75 12.8728 65.2522 9.375 60.9375 9.375C56.6228 9.375 53.125 12.8728 53.125 17.1875V39.0612C53.125 43.3759 56.6228 46.8737 60.9375 46.8737Z" fill="#2EB67D"/>
<path d="M17.1868 53.1263C12.8725 53.1263 9.37501 56.6238 9.37501 60.9382C9.37501 65.2525 12.8728 68.75 17.1872 68.75C21.5019 68.75 25 65.2522 25 60.9375V53.1263H17.1868ZM39.0625 53.1263C34.7478 53.1263 31.25 56.6241 31.25 60.9388V82.8125C31.25 87.1272 34.7478 90.625 39.0625 90.625C43.3772 90.625 46.875 87.1272 46.875 82.8125V60.9388C46.875 56.6241 43.3772 53.1263 39.0625 53.1263Z" fill="#E01E5A"/>
<path d="M53.1263 82.8132C53.1263 87.1275 56.6238 90.625 60.9382 90.625C65.2525 90.625 68.75 87.1272 68.75 82.8128C68.75 78.4981 65.2522 75 60.9375 75L53.1263 75L53.1263 82.8132ZM53.1263 60.9375C53.1263 65.2522 56.6241 68.75 60.9388 68.75L82.8125 68.75C87.1272 68.75 90.625 65.2522 90.625 60.9375C90.625 56.6228 87.1272 53.125 82.8125 53.125L60.9388 53.125C56.6241 53.125 53.1263 56.6228 53.1263 60.9375Z" fill="#ECB22E"/>
<path d="M46.8737 17.1868C46.8737 12.8725 43.3762 9.375 39.0618 9.375C34.7475 9.375 31.25 12.8728 31.25 17.1872C31.25 21.5019 34.7478 25 39.0625 25L46.8737 25L46.8737 17.1868ZM46.8737 39.0625C46.8737 34.7478 43.3759 31.25 39.0612 31.25L17.1875 31.25C12.8728 31.25 9.375 34.7478 9.375 39.0625C9.375 43.3772 12.8728 46.875 17.1875 46.875L39.0612 46.875C43.3759 46.875 46.8737 43.3772 46.8737 39.0625Z" fill="#36C5F0"/>
</svg>
