<svg width="40" height="40" viewBox="0 0 40 40" fill="none" xmlns="http://www.w3.org/2000/svg">
<path fill-rule="evenodd" clip-rule="evenodd" d="M2.00036 10.9259C2.00072 19.3056 2.05011 22.0031 2.21002 22.3689C2.24475 22.4484 2.31205 22.8553 2.35962 23.273C2.40702 23.6907 2.47141 24.0651 2.50271 24.1051C2.534 24.1451 2.61577 24.4953 2.68451 24.8833C2.75307 25.2713 2.8323 25.5888 2.86052 25.5888C2.88874 25.5888 2.95368 25.7923 3.00506 26.041C3.05643 26.2898 3.15828 26.6246 3.23136 26.7852C3.30444 26.9459 3.38783 27.1738 3.41678 27.2918C3.44572 27.4097 3.48895 27.5226 3.51301 27.5425C3.53689 27.5624 3.60129 27.7089 3.65628 27.8681C3.77278 28.2062 4.46091 29.6602 4.52946 29.7132C4.55515 29.7331 4.63637 29.8796 4.70982 30.0388C4.78326 30.198 4.86666 30.3445 4.89487 30.3644C4.92328 30.3843 5.0045 30.5146 5.07523 30.6539C5.14596 30.7932 5.22429 30.9234 5.24907 30.9433C5.27385 30.9632 5.42399 31.1732 5.58264 31.41C5.74128 31.6468 5.92001 31.8983 5.97971 31.9686C6.0394 32.0392 6.16151 32.1873 6.25105 32.2979C7.02926 33.2593 8.42288 34.6209 9.19711 35.1763C9.308 35.2559 9.5656 35.4427 9.76965 35.5918C9.97352 35.7407 10.2532 35.9198 10.3914 35.9898C10.5294 36.0596 10.7004 36.1739 10.7713 36.2436C10.842 36.3132 10.9489 36.3702 11.0086 36.3702C11.0683 36.3702 11.1171 36.4 11.1171 36.4366C11.1171 36.4731 11.2637 36.5589 11.4428 36.6272C11.6218 36.6956 11.7684 36.7734 11.7684 36.7998C11.7684 36.8264 11.9312 36.9067 12.1302 36.9782C12.3291 37.0498 12.4919 37.1341 12.4919 37.1656C12.4919 37.1971 12.5804 37.245 12.6886 37.2721C12.7968 37.2993 13.0522 37.4006 13.2564 37.497C13.6084 37.6636 13.9391 37.7265 13.9391 37.6269C13.9391 37.5686 13.6441 37.3108 13.5775 37.3108C13.55 37.3108 13.4328 37.2294 13.3172 37.1299C13.2016 37.0306 13.0674 36.9492 13.0191 36.9491C12.9708 36.9491 12.8963 36.8839 12.8537 36.8043C12.8112 36.7247 12.7394 36.6596 12.6944 36.6596C12.6493 36.6596 12.5218 36.5766 12.4111 36.4753C11.9395 36.0438 10.8512 34.9382 10.7033 34.7401C10.6148 34.6218 10.4439 34.3984 10.3234 34.2438C10.2027 34.0891 10.1041 33.9368 10.1041 33.9053C10.1041 33.8738 10.0562 33.8 9.99758 33.7414C9.86842 33.6122 9.47624 32.937 9.37041 32.6618C9.32845 32.5524 9.26821 32.4628 9.23673 32.4628C9.20526 32.4628 9.1584 32.35 9.13254 32.2119C9.10667 32.0739 9.04426 31.9192 8.99379 31.8682C8.94332 31.8172 8.84347 31.5638 8.77165 31.3051C8.70002 31.0464 8.61662 30.8022 8.58641 30.7624C8.55602 30.7226 8.49018 30.4621 8.43989 30.1835C8.3896 29.905 8.32339 29.6445 8.29282 29.6047C8.02003 29.2503 8.02166 24.6006 8.29463 24.2502C8.32556 24.2104 8.39105 23.9336 8.43989 23.6351C8.48873 23.3366 8.55439 23.0599 8.58569 23.0201C8.61698 22.9803 8.69803 22.725 8.76586 22.4528C8.83388 22.1805 8.93464 21.8712 8.98981 21.7654C9.04498 21.6596 9.09039 21.5463 9.09075 21.5139C9.09093 21.4816 9.17251 21.2772 9.27201 21.0597C9.3715 20.8421 9.4529 20.6475 9.4529 20.627C9.4529 20.6068 9.55059 20.3812 9.66998 20.1258C9.78937 19.8703 9.88705 19.6303 9.88705 19.5921C9.88705 19.5539 9.91419 19.512 9.94729 19.4986C9.98057 19.4854 10.1333 19.2466 10.2868 18.968C10.4402 18.6894 10.5866 18.4452 10.6119 18.4253C10.637 18.4054 10.7204 18.2761 10.797 18.1381C10.9507 17.8609 10.9426 17.8729 11.2982 17.4123C11.4366 17.2332 11.5502 17.0588 11.5506 17.0248C11.5509 16.9906 11.6327 16.8988 11.7322 16.8206C11.8317 16.7423 11.9131 16.6504 11.9131 16.6162C11.9131 16.4613 14.2208 14.1562 14.3758 14.1562C14.4098 14.1562 14.48 14.0987 14.5319 14.0283C14.584 13.9579 14.7242 13.838 14.8436 13.7618C14.963 13.6855 15.0994 13.5884 15.1468 13.546C15.1942 13.5035 15.3521 13.3874 15.4979 13.2879C15.6435 13.1884 15.8174 13.0582 15.8843 12.9985C15.951 12.9388 16.1024 12.8411 16.2206 12.7814C16.4608 12.66 16.8689 12.4033 17.0833 12.2387C17.161 12.179 17.2607 12.1302 17.3049 12.1302C17.349 12.1302 17.4481 12.0728 17.5254 12.0026C17.6024 11.9324 17.804 11.8136 17.9731 11.7383C18.1422 11.6631 18.2806 11.5779 18.2806 11.5488C18.2806 11.5196 18.3457 11.4788 18.4253 11.458C18.6234 11.4062 18.6073 11.2767 18.353 10.8755C18.2336 10.6873 18.1359 10.5195 18.1359 10.5028C18.1359 10.4685 17.8296 9.99921 17.6632 9.77852C17.004 8.90425 16.7421 8.5846 16.6846 8.5846C16.6471 8.5846 16.6164 8.54191 16.6164 8.48963C16.6164 8.32827 15.3146 7.04084 14.5674 6.46288C14.4552 6.37623 14.2948 6.23205 14.2106 6.14251C14.1265 6.05297 14.0164 5.97971 13.9659 5.97971C13.9152 5.97971 13.8479 5.93647 13.8161 5.88365C13.7843 5.83083 13.6443 5.725 13.505 5.64849C13.3657 5.57197 13.2257 5.46867 13.1938 5.41893C13.162 5.36918 13.0927 5.32848 13.0399 5.32848C12.9871 5.32848 12.9028 5.2791 12.8527 5.21868C12.8025 5.15826 12.6439 5.05406 12.5001 4.98713C12.3563 4.92038 12.2224 4.8444 12.2025 4.81835C12.1826 4.79231 12.0361 4.7109 11.8769 4.63746C11.7177 4.56402 11.5712 4.48406 11.5513 4.45982C11.4921 4.38746 10.5851 3.96814 10.3728 3.91496C10.2648 3.88783 10.1765 3.84007 10.1765 3.80896C10.1765 3.77784 10.088 3.73009 9.98003 3.70295C9.87204 3.67582 9.65225 3.59423 9.49161 3.52169C9.33098 3.44897 9.05312 3.34803 8.87404 3.2972C8.69495 3.24637 8.51586 3.18179 8.47607 3.15393C8.43627 3.12589 8.14322 3.04341 7.82484 2.97051C7.50646 2.8976 7.22969 2.81711 7.2098 2.79142C7.1899 2.76573 6.94569 2.70495 6.66711 2.65647C6.38853 2.60799 6.09548 2.53889 6.01589 2.50307C5.84277 2.4251 4.35164 2.21707 3.96561 2.21707C3.81583 2.21707 3.66225 2.18849 3.62444 2.1534C3.58664 2.11849 3.20567 2.07308 2.77785 2.05264L2 2.01556L2.00036 10.9259ZM38.2153 2.05174C37.9765 2.06512 37.7323 2.09678 37.6726 2.12229C37.6129 2.14761 37.1784 2.22666 36.707 2.29812C36.2356 2.36939 35.8123 2.45694 35.7664 2.49258C35.7204 2.52803 35.4784 2.59931 35.2284 2.65068C34.9786 2.70224 34.7593 2.76808 34.7414 2.79703C34.7235 2.82597 34.4802 2.909 34.2009 2.98154C33.9216 3.0539 33.6929 3.13964 33.6929 3.17166C33.6929 3.20386 33.6457 3.23009 33.5878 3.23009C33.4655 3.23009 32.2993 3.73171 32.2458 3.80733C32.2259 3.83537 32.0549 3.91677 31.8659 3.98822C31.6768 4.05968 31.5222 4.14271 31.5222 4.17274C31.5222 4.20277 31.4326 4.2498 31.3232 4.27711C31.2137 4.30425 30.9802 4.42183 30.8042 4.53815C30.6284 4.65446 30.4411 4.74961 30.3881 4.74961C30.3353 4.74961 30.2921 4.78181 30.2921 4.82107C30.2921 4.86032 30.1788 4.93974 30.0405 4.99744C29.9023 5.05533 29.717 5.16965 29.6289 5.25178C29.5408 5.33373 29.4261 5.40084 29.374 5.40084C29.3218 5.40084 29.2791 5.42653 29.2791 5.45782C29.2791 5.51589 28.5186 6.05206 28.4363 6.05206C28.4115 6.05206 28.316 6.12533 28.2241 6.21487C27.8712 6.55893 27.7811 6.63093 27.7033 6.63093C27.6591 6.63093 27.5805 6.69044 27.5285 6.76316C27.4764 6.83588 27.3768 6.92687 27.3068 6.96522C26.9397 7.1671 24.6843 9.35431 23.9208 10.2488C23.6659 10.5473 23.3835 10.8726 23.2931 10.9717C23.2026 11.0708 23.1286 11.175 23.1286 11.2036C23.1286 11.232 23.0449 11.3463 22.9427 11.4576C22.8404 11.5688 22.7102 11.7114 22.6532 11.7745C22.5962 11.8375 22.5498 11.9254 22.5498 11.9699C22.5498 12.0142 22.5065 12.0766 22.4537 12.1085C22.4009 12.1403 22.295 12.2803 22.2185 12.4196C22.142 12.5589 22.0387 12.6989 21.989 12.7307C21.9392 12.7626 21.8985 12.8174 21.8985 12.8528C21.8985 12.8881 21.756 13.1253 21.5816 13.38C21.4072 13.6345 21.2424 13.9131 21.2151 13.999C21.1878 14.0851 21.1252 14.1962 21.076 14.2463C21.0268 14.2962 20.8595 14.5976 20.7041 14.916C20.5489 15.2343 20.4013 15.5111 20.3763 15.531C20.3513 15.5509 20.2685 15.7463 20.1923 15.9651C20.116 16.184 20.0156 16.4035 19.9689 16.4528C19.9224 16.5022 19.8624 16.6428 19.8354 16.7653C19.8085 16.8877 19.7413 17.0751 19.686 17.1817C19.6308 17.288 19.5472 17.5464 19.5004 17.7557C19.4535 17.9648 19.3879 18.1359 19.3544 18.1359C19.3209 18.1359 19.2936 18.213 19.2936 18.3074C19.2936 18.4955 19.5281 18.5677 20.1438 18.5693C20.313 18.5697 20.4514 18.6026 20.4514 18.6424C20.4514 18.6822 20.527 18.7148 20.6196 18.7148C20.8913 18.7148 22.1485 18.9436 22.188 19.0002C22.2079 19.0288 22.4276 19.0946 22.6764 19.1466C22.9251 19.1985 23.1286 19.2679 23.1286 19.3007C23.1286 19.3336 23.2571 19.3949 23.4139 19.4373C23.9081 19.5702 24.4982 19.8975 25.2898 20.4772C25.9674 20.9734 26.9636 22.1174 26.9636 22.3991C26.9636 22.4365 27.0056 22.5101 27.0568 22.5626C27.1581 22.6664 27.4356 23.5251 27.5553 24.1055C27.6461 24.5449 27.5989 26.4086 27.4936 26.5421C27.452 26.5949 27.3598 26.8903 27.2887 27.1988C27.2174 27.5072 27.1382 27.7595 27.1125 27.7595C27.087 27.7595 27.005 27.9386 26.9307 28.1575C26.8563 28.3764 26.7681 28.5555 26.7348 28.5555C26.7015 28.5555 26.6742 28.5904 26.6742 28.6329C26.6742 28.6754 26.5765 28.8523 26.4571 29.0258C26.3377 29.1993 26.24 29.3771 26.24 29.4211C26.24 29.4649 26.1912 29.5195 26.1315 29.5423C26.0718 29.5652 26.0229 29.6184 26.0229 29.6604C26.0229 29.8069 24.8782 31.0405 24.5315 31.2677C24.4186 31.3416 24.2929 31.4287 24.252 31.461C23.862 31.7709 23.7107 31.8708 23.5085 31.9518C23.3792 32.0037 23.2733 32.0723 23.2733 32.1039C23.2733 32.1358 23.1024 32.2181 22.8935 32.2868C22.6845 32.3556 22.4971 32.4366 22.4772 32.467C22.4571 32.4974 22.2292 32.5647 21.9707 32.6168C21.712 32.6687 21.4774 32.7449 21.449 32.7861C21.3777 32.8892 19.2759 32.8858 19.1419 32.7823C19.0861 32.7391 18.8459 32.662 18.6084 32.6108C18.3709 32.5596 18.1104 32.4757 18.0295 32.4241C17.9487 32.3728 17.7443 32.2901 17.5751 32.2405C17.406 32.1909 17.2676 32.1271 17.2676 32.0983C17.2676 32.0698 17.1721 32.0066 17.0554 31.9583C16.319 31.6533 16.3224 31.4771 17.0686 31.276C17.3372 31.2036 17.557 31.1153 17.557 31.0801C17.557 31.0446 17.614 31.014 17.6837 31.0122C17.7533 31.0102 17.9129 30.9533 18.0382 30.8856C18.1636 30.8178 18.3904 30.6984 18.5424 30.6201C18.6941 30.5419 18.8745 30.4279 18.9429 30.3668C19.0114 30.3058 19.1552 30.1908 19.2627 30.1112C19.4438 29.977 19.769 29.6628 20.0863 29.3153C20.159 29.2357 20.2404 29.0973 20.2674 29.0077C20.2943 28.9182 20.3441 28.8449 20.3781 28.8449C20.4119 28.8449 20.4935 28.674 20.5592 28.465C20.625 28.2561 20.7171 28.007 20.7641 27.9113C20.8774 27.6803 20.8672 26.2219 20.752 26.1834C20.7061 26.1682 20.6684 26.0939 20.6684 26.0184C20.6684 25.8392 20.449 25.2898 20.3285 25.1675C20.2766 25.115 20.2343 25.0474 20.2343 25.0172C20.2343 24.9271 19.1467 23.8522 19.0556 23.8522C19.0308 23.8522 18.8964 23.7746 18.7565 23.6798C18.6169 23.585 18.3794 23.4843 18.2289 23.456C18.0786 23.4278 17.932 23.367 17.9036 23.3209C17.8316 23.2046 15.6904 23.2059 15.4519 23.3224C15.3563 23.3694 15.1068 23.4615 14.8979 23.5273C14.6889 23.593 14.518 23.6735 14.518 23.7062C14.518 23.739 14.4203 23.7997 14.3009 23.8413C14.1815 23.883 14.0838 23.9513 14.0838 23.9931C14.0838 24.0351 14.0393 24.0693 13.9851 24.0693C13.7168 24.0693 12.6074 25.4374 12.4154 26.0049C12.3718 26.1342 12.3105 26.24 12.2792 26.24C12.2479 26.24 12.1797 26.4435 12.1278 26.6923C12.0759 26.941 11.9981 27.1677 11.9552 27.1961C11.8471 27.2675 11.8481 29.7268 11.9565 29.865C12.0003 29.9207 12.0781 30.17 12.1293 30.4187C12.1804 30.6674 12.2468 30.871 12.2767 30.871C12.3067 30.871 12.3519 30.9815 12.3773 31.1164C12.4342 31.4202 13.1938 32.9118 13.3318 32.9911C13.3872 33.0229 13.4326 33.0958 13.4326 33.1531C13.4326 33.2107 13.4977 33.2982 13.5773 33.348C13.6569 33.3977 13.722 33.4755 13.722 33.5207C13.722 33.6088 15.0925 34.9954 15.1795 34.9954C15.2079 34.9954 15.2743 35.0361 15.3268 35.0858C15.5241 35.2725 15.938 35.5507 16.1972 35.6708C16.3448 35.7392 16.4823 35.8224 16.503 35.8557C16.5234 35.889 16.6876 35.9574 16.8678 36.0079C17.0478 36.0583 17.1952 36.1227 17.1952 36.1511C17.1952 36.1793 17.3336 36.2423 17.5028 36.291C17.6719 36.3396 17.908 36.4226 18.0274 36.4756C18.1468 36.5285 18.4886 36.6106 18.7871 36.6578C19.0856 36.705 19.3846 36.7725 19.4514 36.8078C19.862 37.0236 23.8473 37.0247 24.275 36.809C24.341 36.7758 24.7531 36.6929 25.1908 36.6247C25.6286 36.5565 26.003 36.4769 26.0229 36.4476C26.0428 36.4185 26.2708 36.351 26.5295 36.2978C26.7881 36.2446 27.0161 36.1801 27.036 36.1546C27.0559 36.129 27.2919 36.0495 27.5606 35.9778C27.8292 35.9062 28.049 35.8228 28.049 35.7924C28.049 35.762 28.1523 35.7164 28.2787 35.6911C28.405 35.6658 28.7143 35.5478 28.9663 35.4288C29.2181 35.3098 29.4567 35.2125 29.4963 35.2125C29.5359 35.2125 29.5685 35.1871 29.5685 35.156C29.5685 35.1249 29.7313 35.0364 29.9303 34.9592C30.1293 34.882 30.2921 34.7958 30.2921 34.768C30.2921 34.74 30.4061 34.6795 30.5453 34.6336C30.6846 34.5876 30.7986 34.5249 30.7986 34.4943C30.7986 34.4635 30.9288 34.3798 31.088 34.308C31.2472 34.2362 31.3778 34.158 31.3784 34.1341C31.3787 34.1104 31.5072 34.0296 31.6636 33.9545C31.8203 33.8796 31.9654 33.7738 31.9862 33.7193C32.0072 33.6651 32.0728 33.6206 32.1323 33.6206C32.192 33.6206 32.2756 33.5554 32.3181 33.4759C32.3606 33.3963 32.4415 33.3311 32.4974 33.3311C32.5535 33.3311 32.6419 33.2716 32.6938 33.1989C32.7459 33.1262 32.8422 33.0366 32.9077 32.9999C33.0708 32.9086 34.0969 31.9777 34.3729 31.6703C34.4965 31.533 34.6625 31.3518 34.7421 31.2677C34.8217 31.1835 35.0171 30.9543 35.1763 30.7584C35.3355 30.5625 35.5227 30.3368 35.5923 30.2568C35.8722 29.935 35.9214 29.8684 36.0527 29.6327C36.1278 29.498 36.2117 29.3706 36.2392 29.3498C36.3128 29.2941 36.6073 28.8411 36.7318 28.5917C36.7915 28.4723 36.8581 28.3583 36.8799 28.3384C36.9715 28.2548 37.8173 26.4696 37.8173 26.36C37.8173 26.2939 37.8459 26.24 37.8808 26.24C37.9581 26.24 38.1437 25.5837 38.3414 24.612C38.4224 24.214 38.5161 23.8233 38.5498 23.7437C38.625 23.5651 38.737 22.6187 38.8023 21.6091C38.8295 21.1912 38.8769 20.8327 38.9078 20.8122C38.9877 20.7596 39.014 17.1462 38.9932 9.03684L38.9751 2L38.8123 2.01375C38.7227 2.02116 38.4541 2.03835 38.2153 2.05174Z" fill="#EC4424"/>
</svg>
