<svg width="100" height="100" viewBox="0 0 100 100" fill="none" xmlns="http://www.w3.org/2000/svg">
<path d="M6.25 36.25C6.25 25.749 6.25 20.4985 8.29363 16.4877C10.0913 12.9596 12.9596 10.0913 16.4877 8.29363C20.4985 6.25 25.749 6.25 36.25 6.25H63.75C74.251 6.25 79.5015 6.25 83.5123 8.29363C87.0404 10.0913 89.9087 12.9596 91.7064 16.4877C93.75 20.4985 93.75 25.749 93.75 36.25V63.75C93.75 74.251 93.75 79.5015 91.7064 83.5123C89.9087 87.0404 87.0404 89.9087 83.5123 91.7064C79.5015 93.75 74.251 93.75 63.75 93.75H36.25C25.749 93.75 20.4985 93.75 16.4877 91.7064C12.9596 89.9087 10.0913 87.0404 8.29363 83.5123C6.25 79.5015 6.25 74.251 6.25 63.75V36.25Z" fill="#4087FC"/>
<path d="M25.8333 31.25C23.6472 31.25 21.875 33.2487 21.875 35.7143V57.3661C21.875 63.6532 26.3941 68.75 31.9688 68.75L55.4167 68.5269C57.6028 68.5269 59.375 66.5281 59.375 64.0626V42.1876C59.375 35.9004 54.0121 31.2501 48.4375 31.2501L25.8333 31.25Z" fill="white"/>
<path d="M64.7256 39.7737C63.3111 41.1724 62.5 43.191 62.5 45.3126V54.3728C62.5 56.4944 63.3111 58.513 64.7256 59.9116L73.5275 67.6639C75.3185 69.4348 78.125 68.0004 78.125 65.3141V34.7974C78.125 32.1111 75.3185 30.6767 73.5275 32.4476L64.7256 39.7737Z" fill="white"/>
</svg>
