<svg width="86" height="24" viewBox="0 0 86 24" fill="none" xmlns="http://www.w3.org/2000/svg">
<g clip-path="url(#clip0_1613_209)">
<path d="M12.616 2.12H15.676L11.428 7.268V11H8.248V7.28L4.012 2.12H7.072L9.772 5.42L12.616 2.12ZM26.9996 8.06C26.9916 9.172 26.4876 9.984 25.4876 10.496C24.4876 11.008 23.1836 11.264 21.5756 11.264C19.7596 11.264 18.3716 10.956 17.4116 10.34C16.4516 9.716 15.9716 8.78 15.9716 7.532H18.7796C18.7796 8.148 19.0516 8.6 19.5956 8.888C20.1396 9.168 20.7996 9.304 21.5756 9.296C22.2556 9.312 22.8356 9.22 23.3156 9.02C23.7956 8.82 24.0396 8.5 24.0476 8.06C24.0476 7.836 23.9876 7.668 23.8676 7.556C23.7476 7.436 23.5596 7.356 23.3036 7.316C23.0476 7.268 22.6876 7.244 22.2236 7.244H20.0036V5.516H22.2236C22.8636 5.516 23.3196 5.436 23.5916 5.276C23.8636 5.116 23.9996 4.92 23.9996 4.688C23.9996 4.392 23.7636 4.176 23.2916 4.04C22.8276 3.896 22.2556 3.82 21.5756 3.812C20.7996 3.812 20.1396 3.896 19.5956 4.064C19.0516 4.224 18.7796 4.476 18.7796 4.82H15.9716C15.9716 3.668 16.5516 2.888 17.7116 2.48C18.8796 2.064 20.1676 1.856 21.5756 1.856C22.4316 1.856 23.2276 1.912 23.9636 2.024C24.7076 2.128 25.3596 2.376 25.9196 2.768C26.4796 3.16 26.7596 3.74 26.7596 4.508C26.7596 5.292 26.2796 5.828 25.3196 6.116C26.3596 6.428 26.9196 7.068 26.9996 8.036V8.06ZM38.1725 8.84H39.3605V12.152H36.5885V11.012L30.0845 11V12.152H27.3125V8.84H28.2005C28.6325 8 28.9805 7.248 29.2445 6.584C29.5085 5.92 29.7085 5.228 29.8445 4.508C29.9885 3.78 30.0605 2.984 30.0605 2.12H38.1605L38.1725 8.84ZM32.6405 4.244C32.5125 5.012 32.3165 5.748 32.0525 6.452C31.7965 7.156 31.4565 7.952 31.0325 8.84H35.4125V4.256L32.6405 4.244ZM42.999 11H40.035V2.12H42.999V11ZM49.3482 6.188L54.1842 11H50.5482L46.9482 7.28V11H43.9842V2.12H46.9482V5.204L50.3322 2.12H54.0042L49.3482 6.188ZM16.396 18.188L21.244 23H17.596L13.996 19.268V23H11.044V19.376L7.54 23H3.904L8.74 18.188L4.084 14.12H7.756L11.044 17.12V14.12H13.996V17.216L17.392 14.12H21.064L16.396 18.188ZM33.5765 23H30.5885L29.7605 21.476H24.7325L23.9045 23H20.9165L25.7285 14.12H28.7645L33.5765 23ZM27.2525 16.832L25.8125 19.472H28.6805L27.2525 16.832ZM32.6934 18.572C32.6934 17.684 32.9534 16.884 33.4734 16.172C34.0014 15.46 34.7174 14.904 35.6214 14.504C36.5334 14.096 37.5414 13.892 38.6454 13.892C39.6374 13.892 40.5334 14.052 41.3334 14.372C42.1334 14.684 42.7894 15.128 43.3014 15.704C43.8134 16.272 44.1534 16.94 44.3214 17.708H41.2494C41.1294 17.388 40.9254 17.112 40.6374 16.88C40.3574 16.64 40.0414 16.46 39.6894 16.34C39.3374 16.22 38.9934 16.16 38.6574 16.16C38.1854 16.16 37.7254 16.256 37.2774 16.448C36.8374 16.64 36.4774 16.92 36.1974 17.288C35.9254 17.648 35.7894 18.076 35.7894 18.572C35.7894 19.068 35.9254 19.5 36.1974 19.868C36.4694 20.228 36.8214 20.504 37.2534 20.696C37.6934 20.88 38.1614 20.972 38.6574 20.972C39.2094 20.972 39.7174 20.84 40.1814 20.576C40.6534 20.312 41.0014 19.936 41.2254 19.448H44.3094C44.1334 20.208 43.7894 20.876 43.2774 21.452C42.7654 22.02 42.1134 22.46 41.3214 22.772C40.5294 23.084 39.6374 23.24 38.6454 23.24C37.5494 23.24 36.5454 23.036 35.6334 22.628C34.7294 22.22 34.0134 21.66 33.4854 20.948C32.9574 20.236 32.6934 19.444 32.6934 18.572ZM44.73 16.52V14.12H55.218L44.73 16.52ZM55.218 14.12V16.532H51.474V23H48.522V16.532H44.73V14.12H55.218ZM65.2758 23H62.2878L61.4598 21.476H56.4318L55.6038 23H52.6157L57.4278 14.12H60.4638L65.2758 23ZM58.9518 16.832L57.5118 19.472H60.3798L58.9518 16.832ZM72.243 14.12C72.987 14.12 73.643 14.244 74.211 14.492C74.787 14.74 75.231 15.088 75.543 15.536C75.863 15.976 76.023 16.488 76.023 17.072V17.12C76.023 18.08 75.695 18.824 75.039 19.352C74.383 19.872 73.487 20.132 72.351 20.132H68.499V23H65.535V14.12H72.243ZM71.715 18.032C72.131 18.032 72.439 18.02 72.639 17.996C72.847 17.972 73.019 17.896 73.155 17.768C73.291 17.64 73.359 17.428 73.359 17.132C73.359 16.828 73.291 16.608 73.155 16.472C73.019 16.336 72.843 16.252 72.627 16.22C72.411 16.188 72.107 16.172 71.715 16.172H71.319C71.159 16.172 70.879 16.176 70.479 16.184C70.079 16.184 69.419 16.184 68.499 16.184V18.032H71.703H71.715Z" fill="black"/>
</g>
<defs>
<clipPath id="clip0_1613_209">
<rect width="86" height="24" fill="white"/>
</clipPath>
</defs>
</svg>
