<svg width="250" height="70" viewBox="0 0 250 70" fill="none" xmlns="http://www.w3.org/2000/svg">
<path d="M26.7235 4.54959H35.149L23.4524 18.7242V29H14.6965V18.7573L3.03304 4.54959H11.4585L18.8928 13.6359L26.7235 4.54959ZM66.3276 20.9049C66.3056 23.9667 64.9179 26.2025 62.1645 27.6123C59.411 29.022 55.8206 29.7269 51.3931 29.7269C46.3929 29.7269 42.5711 28.8788 39.9278 27.1827C37.2845 25.4646 35.9629 22.8874 35.9629 19.4511H43.6945C43.6945 21.1472 44.4434 22.3918 45.9413 23.1848C47.4392 23.9557 49.2564 24.3302 51.3931 24.3082C53.2654 24.3522 54.8624 24.0989 56.184 23.5482C57.5057 22.9975 58.1775 22.1164 58.1995 20.9049C58.1995 20.2882 58.0343 19.8256 57.7039 19.5172C57.3735 19.1868 56.8559 18.9665 56.151 18.8564C55.4461 18.7242 54.4549 18.6581 53.1773 18.6581H47.0647V13.9002H53.1773C54.9395 13.9002 56.195 13.6799 56.944 13.2394C57.6929 12.7988 58.0674 12.2592 58.0674 11.6204C58.0674 10.8054 57.4176 10.2106 56.1179 9.83616C54.8404 9.43967 53.2654 9.23041 51.3931 9.20838C49.2564 9.20838 47.4392 9.43967 45.9413 9.90225C44.4434 10.3428 43.6945 11.0367 43.6945 11.9838H35.9629C35.9629 8.81189 37.5599 6.66422 40.7538 5.54082C43.9698 4.3954 47.5163 3.82268 51.3931 3.82268C53.75 3.82268 55.9417 3.97688 57.9683 4.28526C60.0168 4.57162 61.812 5.25447 63.354 6.33381C64.8959 7.41315 65.6668 9.01014 65.6668 11.1248C65.6668 13.2835 64.3452 14.7593 61.7019 15.5523C64.5655 16.4113 66.1074 18.1735 66.3276 20.8388V20.9049ZM97.0915 23.0526H100.363V32.1719H92.7301V29.033L74.8218 29V32.1719H67.1893V23.0526H69.6343C70.8238 20.7397 71.782 18.6691 72.5089 16.8409C73.2358 15.0126 73.7865 13.1072 74.161 11.1248C74.5575 9.12027 74.7557 6.92855 74.7557 4.54959H97.0585L97.0915 23.0526ZM81.8595 10.3979C81.5071 12.5125 80.9674 14.539 80.2405 16.4774C79.5357 18.4158 78.5995 20.6076 77.432 23.0526H89.492V10.4309L81.8595 10.3979ZM110.381 29H102.22V4.54959H110.381V29ZM127.863 15.7505L141.178 29H131.167L121.255 18.7573V29H113.093V4.54959H121.255V13.0412L130.572 4.54959H140.683L127.863 15.7505ZM37.1315 48.7505L50.4801 62H40.4356L30.5232 51.7242V62H22.3951V52.0216L12.7471 62H2.73567L16.0512 48.7505L3.23129 37.5496H13.3419L22.3951 45.8099V37.5496H30.5232V46.0742L39.8739 37.5496H49.9844L37.1315 48.7505ZM84.4368 62H76.2095L73.9297 57.8038H60.0855L57.8056 62H49.5784L62.8279 37.5496H71.1873L84.4368 62ZM67.0241 45.0169L63.0592 52.2859H70.956L67.0241 45.0169ZM82.0051 49.8078C82.0051 47.3628 82.721 45.1601 84.1528 43.1996C85.6066 41.2392 87.5781 39.7083 90.0672 38.6069C92.5783 37.4835 95.3537 36.9218 98.3935 36.9218C101.125 36.9218 103.592 37.3624 105.795 38.2435C107.997 39.1025 109.804 40.325 111.213 41.911C112.623 43.475 113.559 45.3142 114.022 47.4289H105.563C105.233 46.5478 104.671 45.7878 103.878 45.149C103.107 44.4882 102.237 43.9926 101.268 43.6622C100.299 43.3318 99.3517 43.1666 98.4266 43.1666C97.1269 43.1666 95.8604 43.4309 94.6268 43.9596C93.4153 44.4882 92.4241 45.2592 91.6531 46.2724C90.9042 47.2637 90.5297 48.4421 90.5297 49.8078C90.5297 51.1735 90.9042 52.363 91.6531 53.3763C92.4021 54.3675 93.3713 55.1275 94.5608 55.6561C95.7723 56.1627 97.0609 56.4161 98.4266 56.4161C99.9465 56.4161 101.345 56.0526 102.623 55.3257C103.922 54.5988 104.881 53.5635 105.497 52.2198H113.989C113.504 54.3124 112.557 56.1517 111.147 57.7377C109.738 59.3016 107.942 60.5132 105.762 61.3722C103.581 62.2313 101.125 62.6608 98.3935 62.6608C95.3758 62.6608 92.6113 62.0991 90.1002 60.9757C87.6111 59.8523 85.6397 58.3104 84.1858 56.35C82.732 54.3895 82.0051 52.2088 82.0051 49.8078ZM115.147 44.1578V37.5496H144.025L115.147 44.1578ZM144.025 37.5496V44.1908H133.716V62H125.588V44.1908H115.147V37.5496H144.025ZM171.718 62H163.491L161.211 57.8038H147.367L145.087 62H136.86L150.109 37.5496H158.469L171.718 62ZM154.305 45.0169L150.341 52.2859H158.237L154.305 45.0169ZM190.902 37.5496C192.95 37.5496 194.757 37.891 196.321 38.5739C197.907 39.2567 199.129 40.2149 199.988 41.4484C200.869 42.6599 201.31 44.0697 201.31 45.6777V45.8099C201.31 48.4532 200.407 50.5017 198.6 51.9555C196.794 53.3873 194.327 54.1032 191.199 54.1032H180.593V62H172.432V37.5496H190.902ZM189.448 48.321C190.593 48.321 191.442 48.2879 191.992 48.2219C192.565 48.1558 193.039 47.9465 193.413 47.5941C193.787 47.2416 193.975 46.6579 193.975 45.8429C193.975 45.0059 193.787 44.4001 193.413 44.0256C193.039 43.6512 192.554 43.4199 191.959 43.3318C191.364 43.2437 190.527 43.1996 189.448 43.1996H188.358C187.917 43.1996 187.146 43.2106 186.045 43.2327C184.943 43.2327 183.126 43.2327 180.593 43.2327V48.321H189.415H189.448Z" fill="white"/>
<path d="M168.779 27.0438V28.5771H158.432V27.8389C158.432 26.8545 158.61 26.1049 158.965 25.59C159.321 25.0676 159.757 24.7117 160.272 24.5224C160.794 24.3331 161.491 24.1665 162.361 24.0226C162.626 23.9848 163.085 23.9242 163.736 23.8409C164.394 23.7652 164.913 23.6933 165.292 23.6251C165.678 23.557 165.996 23.451 166.246 23.3071C166.503 23.1557 166.632 22.9512 166.632 22.6938C166.632 22.2243 166.322 21.8798 165.701 21.6602C165.087 21.4406 164.334 21.3346 163.44 21.3422C162.585 21.3422 161.858 21.4747 161.26 21.7397C160.662 21.9972 160.362 22.406 160.362 22.9664L158.432 22.955C158.432 22.1827 158.704 21.5731 159.249 21.1264C159.802 20.6721 160.457 20.3578 161.214 20.1837C161.971 20.0095 162.71 19.9224 163.429 19.9224C164.747 19.9224 165.932 20.108 166.984 20.479C168.044 20.8424 168.574 21.5807 168.574 22.6938C168.574 23.2919 168.324 23.7652 167.825 24.1135C167.332 24.4618 166.776 24.7079 166.155 24.8518C165.542 24.9956 164.815 25.1244 163.974 25.2379C163.641 25.2758 163.391 25.3099 163.225 25.3402C162.619 25.4007 162.089 25.5257 161.635 25.715C161.188 25.9043 160.843 26.1201 160.601 26.3624C160.366 26.5971 160.249 26.8242 160.249 27.0438H168.779ZM174.759 20.1496C176.849 20.142 178.25 20.5661 178.962 21.4217C179.673 22.2773 180.029 23.273 180.029 24.4088C180.029 25.5143 179.67 26.5252 178.95 27.4414C178.231 28.35 176.834 28.8043 174.759 28.8043C173.305 28.8043 172.181 28.5582 171.386 28.066C170.598 27.5739 170.076 27.0022 169.819 26.351C169.561 25.6922 169.444 25.0448 169.466 24.4088C169.466 23.3109 169.826 22.3265 170.545 21.4558C171.272 20.585 172.677 20.1496 174.759 20.1496ZM174.771 27.3959C175.596 27.3959 176.266 27.2558 176.781 26.9757C177.296 26.688 177.663 26.3169 177.883 25.8626C178.102 25.4083 178.201 24.9161 178.178 24.3861C178.201 23.8788 178.102 23.4093 177.883 22.9777C177.663 22.5461 177.296 22.1978 176.781 21.9328C176.266 21.6602 175.596 21.5239 174.771 21.5239C173.953 21.5239 173.287 21.6602 172.772 21.9328C172.264 22.1978 171.901 22.5461 171.681 22.9777C171.469 23.4093 171.371 23.8788 171.386 24.3861C171.371 24.9161 171.469 25.4083 171.681 25.8626C171.901 26.3169 172.264 26.688 172.772 26.9757C173.287 27.2558 173.953 27.3959 174.771 27.3959ZM191.184 27.0438V28.5771H180.837V27.8389C180.837 26.8545 181.015 26.1049 181.371 25.59C181.726 25.0676 182.162 24.7117 182.677 24.5224C183.199 24.3331 183.896 24.1665 184.767 24.0226C185.032 23.9848 185.49 23.9242 186.141 23.8409C186.8 23.7652 187.318 23.6933 187.697 23.6251C188.083 23.557 188.401 23.451 188.651 23.3071C188.908 23.1557 189.037 22.9512 189.037 22.6938C189.037 22.2243 188.727 21.8798 188.106 21.6602C187.493 21.4406 186.739 21.3346 185.846 21.3422C184.99 21.3422 184.263 21.4747 183.665 21.7397C183.067 21.9972 182.768 22.406 182.768 22.9664L180.837 22.955C180.837 22.1827 181.109 21.5731 181.655 21.1264C182.207 20.6721 182.862 20.3578 183.619 20.1837C184.377 20.0095 185.115 19.9224 185.834 19.9224C187.152 19.9224 188.337 20.108 189.389 20.479C190.449 20.8424 190.979 21.5807 190.979 22.6938C190.979 23.2919 190.729 23.7652 190.23 24.1135C189.738 24.4618 189.181 24.7079 188.56 24.8518C187.947 24.9956 187.22 25.1244 186.379 25.2379C186.046 25.2758 185.796 25.3099 185.63 25.3402C185.024 25.4007 184.494 25.5257 184.04 25.715C183.593 25.9043 183.248 26.1201 183.006 26.3624C182.771 26.5971 182.654 26.8242 182.654 27.0438H191.184ZM201.367 25.6355L199.413 25.6127L201.367 25.6355ZM201.367 25.6468C201.337 26.8432 200.841 27.6723 199.879 28.1342C198.917 28.5885 197.838 28.8157 196.642 28.8157C196.006 28.8157 195.34 28.721 194.643 28.5317C193.946 28.3424 193.348 28.0206 192.848 27.5663C192.356 27.112 192.11 26.5176 192.11 25.7831L193.973 25.7718C193.973 26.2942 194.223 26.688 194.723 26.953C195.222 27.218 195.832 27.3694 196.551 27.4073C197.346 27.43 198.02 27.3013 198.573 27.0211C199.133 26.7334 199.413 26.2677 199.413 25.6241C199.406 25.0335 199.182 24.5792 198.743 24.2612C198.304 23.9431 197.592 23.7841 196.608 23.7841C196.191 23.7841 195.775 23.8371 195.359 23.9431C194.95 24.0491 194.609 24.2044 194.336 24.4088C194.071 24.6132 193.939 24.8631 193.939 25.1584V25.2152L192.144 25.2493V20.1723H200.969V21.4785H193.939V23.4547C194.613 22.902 195.767 22.6256 197.403 22.6256C198.175 22.6256 198.861 22.7468 199.459 22.9891C200.057 23.2238 200.523 23.5683 200.856 24.0226C201.196 24.477 201.367 25.0146 201.367 25.6355V25.6468Z" fill="white"/>
</svg>
